<?xml version="1.0" standalone="no"?>
<!DOCTYPE svg PUBLIC "-//W3C//DTD SVG 20010904//EN"
 "http://www.w3.org/TR/2001/REC-SVG-20010904/DTD/svg10.dtd">
<svg version="1.0" xmlns="http://www.w3.org/2000/svg"
 width="256.000000pt" height="256.000000pt" viewBox="0 0 256.000000 256.000000"
 preserveAspectRatio="xMidYMid meet">
<metadata>
Created by potrace 1.11, written by Peter Selinger 2001-2013
</metadata>
<g transform="translate(0.000000,256.000000) scale(0.100000,-0.100000)"
fill="#000000" stroke="none">
<path d="M0 1280 l0 -1280 720 0 720 0 0 27 c0 15 9 36 20 48 11 11 36 41 56
67 19 26 46 51 59 54 16 4 25 13 25 25 0 12 7 19 19 19 10 0 21 7 25 15 3 8
12 15 21 15 8 0 15 5 15 10 0 6 6 10 14 10 7 0 30 11 50 25 20 14 48 25 62 25
13 0 32 4 42 9 9 5 29 14 45 20 16 6 27 18 27 30 0 12 7 20 18 19 9 0 73 5
142 11 83 7 136 8 159 1 18 -5 36 -9 40 -8 3 0 11 -1 16 -2 23 -6 50 -4 56 4
10 13 57 -23 81 -63 12 -20 28 -42 35 -49 7 -7 13 -27 13 -43 0 -19 5 -29 15
-29 12 0 16 -11 16 -47 -1 -27 2 -81 5 -120 5 -63 9 -73 25 -73 19 0 19 32 19
1280 l0 1280 -1280 0 -1280 0 0 -1280z"/>
</g>
</svg>
