<svg xmlns="http://www.w3.org/2000/svg"
	 width="120" height="120" viewBox="0 0 120 120">
	<path fill="#000000" d="M72.4,84H47.6C41.2,84,36,78.8,36,72.4V47.6C36,41.2,41.2,36,47.6,36h24.9C78.8,36,84,41.2,84,47.6v24.9
		C84,78.8,78.8,84,72.4,84z M47.6,40c-4.2,0-7.6,3.4-7.6,7.6v24.9c0,4.2,3.4,7.6,7.6,7.6h24.9c4.2,0,7.6-3.4,7.6-7.6V47.6
		c0-4.2-3.4-7.6-7.6-7.6H47.6z"/>
	<path fill="#000000" d="M60,72c-6.6,0-12-5.4-12-12s5.4-12,12-12c6.6,0,12,5.4,12,12S66.6,72,60,72z M60,52c-4.4,0-8,3.6-8,8s3.6,8,8,8
		c4.4,0,8-3.6,8-8S64.4,52,60,52z"/>
	<path fill="#000000" d="M75.4,47.6c0,1.7-1.3,3-3,3c-1.7,0-3-1.3-3-3c0-1.7,1.3-3,3-3C74.1,44.6,75.4,45.9,75.4,47.6z"/>
</svg>
