<svg xmlns="http://www.w3.org/2000/svg" viewBox="0 0 56.8 49">
<path fill="#000000" d="M56.8,2.9l-3.2-1.7c-1.7,1-3.5,1.8-5.4,2.2C45.7,1.2,42.5,0,39.2,0c-7.4,0-13.4,6-13.4,13.4
	c0,0.1,0,0.1,0,0.2c-7.5-1-14.3-4.9-19.1-10.8L3.1,3.1c-1.2,2-1.8,4.4-1.8,6.8c0,2.4,0.7,4.8,1.8,6.8l-1.9,1.1c0,0.1,0,0.2,0,0.3
	c0,4.3,2,8.1,5.2,10.6l-1.1,1.3c1.2,3.6,3.8,6.5,7.1,8c-2.6,1.2-5.5,1.8-8.5,1.8c-0.8,0-1.6,0-2.4-0.1L0,43.6
	C5.5,47.1,11.9,49,18.5,49c21.4,0,34.3-17.4,34.3-34.3c0-0.2,0-0.4,0-0.6C57.1,9.2,56.8,3.1,56.8,2.9z M49,11.8l-0.6,1.6
	c0,0.4,0,0.9,0,1.4c0,12.4-9.3,30-30,30c-3,0-5.9-0.4-8.7-1.3c3.4-0.8,6.6-2.4,9.5-4.6L17.9,35c-2.8-0.1-5.3-1.3-7-3.4
	c0.7-0.1,1.4-0.2,2-0.4L12.8,27c-3.2-0.6-5.7-2.9-6.8-5.8c0.8,0.2,1.5,0.3,2.3,0.3l1.3-3.9C7.1,15.8,5.6,13,5.6,9.9
	c0-0.5,0-1.1,0.1-1.6c6,5.9,13.9,9.5,22.4,9.9l2.2-2.6c-0.2-0.7-0.2-1.4-0.2-2.1c0-5,4.1-9.1,9.1-9.1c2.5,0,4.9,1.1,6.7,2.9l2,0.6
	c1.4-0.3,2.8-0.7,4.1-1.2C51.5,8.2,50.6,10.1,49,11.8z"/>
</svg>
