<svg  xmlns="http://www.w3.org/2000/svg" height="120" width="120" viewBox="0 0 120 120">
	<!-- <path fill="#000000" d="M60,4c30.9,0,56,25.1,56,56s-25.1,56-56,56C29.1,116,4,90.9,4,60S29.1,4,60,4 M60,0C26.9,0,0,26.9,0,60
		s26.9,60,60,60c33.1,0,60-26.9,60-60S93.1,0,60,0L60,0z"/> -->
	<path fill="#000000" d="M56.5,69.2l-3-1.7v-15l3-1.7l13,7.5v3.5L56.5,69.2z M57.5,56V64l7-4L57.5,56z"/>
	<path fill="#000000" d="M78.3,82H41.7C35.2,82,30,76.8,30,70.3V49.7C30,43.2,35.2,38,41.7,38h36.7C84.8,38,90,43.2,90,49.7v20.7
		C90,76.8,84.8,82,78.3,82z M41.7,42c-4.2,0-7.7,3.4-7.7,7.7v20.7c0,4.2,3.4,7.7,7.7,7.7h36.7c4.2,0,7.7-3.4,7.7-7.7V49.7
		c0-4.2-3.4-7.7-7.7-7.7H41.7z"/>
</svg>
