<svg xmlns="http://www.w3.org/2000/svg" xmlns:xlink="http://www.w3.org/1999/xlink"
	 x="0px" y="0px" viewBox="0 0 162.2 179.2">
	<rect y="41.8" width="20.8" height="104.6"/>
	<g>
		<rect x="41.8" width="20.8" height="146.5"/>
	</g>
	<polygon points="83.4,94.2 135.7,41.9 162.2,41.9 109.9,94.2 162.2,146.5 135.7,146.5 "/>
	<g>
		<path d="M36.5,179h-8.1v-11.5h1.8v9.8h6.3V179z"/>
		<path d="M52.6,173.3c0,3.3-2.6,6-6,6c-3.4,0-6-2.6-6-6c0-3.3,2.6-6,6-6C49.9,167.3,52.6,169.9,52.6,173.3z M50.7,173.3
			c0-2.4-1.8-4.3-4.1-4.3c-2.3,0-4.1,1.8-4.1,4.3c0,2.4,1.8,4.2,4.1,4.2C48.9,177.5,50.7,175.7,50.7,173.3z"/>
		<path d="M68.5,179h-1.6l-6.9-8.2v8.2h-1.8v-11.5h1.6l6.9,8.4v-8.4h1.8V179z"/>
		<path d="M79,167.5c3.9,0,6.3,2.4,6.3,5.7S82.9,179,79,179h-4v-11.5H79z M79,177.3c2.8,0,4.5-1.7,4.5-4.1s-1.7-4.1-4.5-4.1h-2.2v8.2
			H79z"/>
		<path d="M102,173.3c0,3.3-2.6,6-6,6c-3.4,0-6-2.6-6-6c0-3.3,2.6-6,6-6C99.4,167.3,102,169.9,102,173.3z M100.2,173.3
			c0-2.4-1.8-4.3-4.1-4.3c-2.3,0-4.1,1.8-4.1,4.3c0,2.4,1.8,4.2,4.1,4.2C98.3,177.5,100.2,175.7,100.2,173.3z"/>
		<path d="M117.5,179H116l-6.9-8.2v8.2h-1.8v-11.5h1.6l6.9,8.4v-8.4h1.8V179z"/>
	</g>
</svg>
